<?xml version="1.0" encoding="utf-8"?><svg fill="none" viewBox="0 0 256 256" xmlns="http://www.w3.org/2000/svg"><defs /><g id="Shape Layer 5"><g transform="translate(48.6,127.969)"><animateTransform repeatCount="indefinite" type="translate" attributeName="transform" dur="0.667s" begin="0s" calcMode="spline" values="48.6 127.969; 48.6 88; 48.6 128" keyTimes="0; 0.5; 1" keySplines="0.333 0 0.667 1; 0.333 0 0.667 1" fill="freeze" /><g transform="scale(0.75,0.75) translate(70,0.5)"><g id="Ellipse 1" transform="matrix(1,0,0,1,-70.125,-0.5)"><ellipse ry="17.25" rx="16.875" cy="0" cx="0" fill="#e53935" fill-opacity="1" /></g></g></g></g><g id="Shape Layer 4"><g transform="translate(88.6,127.969)"><animateTransform repeatCount="indefinite" type="translate" attributeName="transform" dur="0.667s" begin="0.167s" calcMode="spline" values="88.6 127.969; 88.6 88; 88.6 128" keyTimes="0; 0.5; 1" keySplines="0.333 0 0.667 1; 0.333 0 0.667 1" fill="freeze" /><g transform="scale(0.75,0.75) translate(70,0.5)"><g id="Ellipse 1" transform="matrix(1,0,0,1,-70.125,-0.5)"><ellipse ry="17.25" rx="16.875" cy="0" cx="0" fill="#1e88e5" fill-opacity="1" /></g></g></g></g><g id="Shape Layer 1"><g transform="translate(128.594,127.969)"><animateTransform repeatCount="indefinite" type="translate" attributeName="transform" dur="0.667s" begin="0.334s" calcMode="spline" values="128.594 127.969; 128.594 88; 128.594 128" keyTimes="0; 0.5; 1" keySplines="0.333 0 0.667 1; 0.333 0 0.667 1" fill="freeze" /><g transform="scale(0.75,0.75) translate(70,0.5)"><g id="Ellipse 1" transform="matrix(1,0,0,1,-70.125,-0.5)"><ellipse ry="17.25" rx="16.875" cy="0" cx="0" fill="#43a047" fill-opacity="1" /></g></g></g></g><g id="Shape Layer 2"><g transform="translate(168.6,128)"><animateTransform repeatCount="indefinite" type="translate" attributeName="transform" dur="0.667s" begin="0.501s" calcMode="spline" values="168.6 128; 168.6 88; 168.6 128" keyTimes="0; 0.5; 1" keySplines="0.333 0 0.667 1; 0.333 0 0.667 1" fill="freeze" /><g transform="scale(0.75,0.75) translate(70,0.5)"><g id="Ellipse 1" transform="matrix(1,0,0,1,-70.125,-0.5)"><ellipse ry="17.25" rx="16.875" cy="0" cx="0" fill="#fdd835" fill-opacity="1" /></g></g></g></g><g id="Shape Layer 3"><g transform="translate(208.6,127.969)"><animateTransform repeatCount="indefinite" type="translate" attributeName="transform" dur="0.667s" begin="0.667s" calcMode="spline" values="208.6 127.969; 208.6 88; 208.6 128" keyTimes="0; 0.5; 1" keySplines="0.333 0 0.667 1; 0.333 0 0.667 1" fill="freeze" /><g transform="scale(0.75,0.75) translate(70,0.5)"><g id="Ellipse 1" transform="matrix(1,0,0,1,-70.125,-0.5)"><ellipse ry="17.25" rx="16.875" cy="0" cx="0" fill="#fb8c00" fill-opacity="1" /></g></g></g></g></svg>