<svg xmlns="http://www.w3.org/2000/svg" viewBox="0 0 128 128" role="img" aria-label="Support">
  <path fill="#135f92" d="M24 71H14c-4.4 0-8-3.6-8-8v-8c0-4.4 3.6-8 8-8h10v24Zm90-24c4.4 0 8 3.6 8 8v8c0 4.4-3.6 8-8 8h-10V47h10Z"/>
  <circle cx="64" cy="64" r="44" fill="#fff"/>
  <circle cx="64" cy="64" r="34" fill="#10a8df"/>
  <path fill="#135f92" d="M104 61h-8c0-17.7-14.3-32-32-32S32 43.3 32 61h-8c0-22.1 17.9-40 40-40s40 17.9 40 40Z"/>
  <path fill="#135f92" d="M87 91c-6.3 5.2-14.3 8-23 8v-8c6.8 0 13-2.3 18-6.5L87 91Z"/>
  <path fill="#135f92" d="M84 92h14c3.3 0 6 2.7 6 6s-2.7 6-6 6H84V92Z"/>
  <circle cx="54" cy="63" r="5.5" fill="#fff"/>
  <circle cx="67" cy="63" r="5.5" fill="#fff"/>
  <circle cx="80" cy="63" r="5.5" fill="#fff"/>
  <path fill="#10a8df" d="M74 83 91 96l-5-20-12 7Z"/>
</svg>
