<svg xmlns="http://www.w3.org/2000/svg" viewBox="0 0 128 128" role="img" aria-label="WhatsApp">
  <circle cx="64" cy="64" r="58" fill="#10c957"/>
  <path fill="#fff" d="M64.3 29.6c-18.3 0-33.1 14.8-33.1 33.1 0 5.9 1.6 11.6 4.5 16.6l-5 18.2 18.6-4.9c4.8 2.6 10.2 4 15 4 18.3 0 33.1-14.8 33.1-33.1S82.6 29.6 64.3 29.6Zm0 60.7c-4.5 0-8.9-1.2-12.8-3.5l-.9-.5-11 2.9 2.9-10.7-.6-1c-2.6-4.2-3.9-9.3-3.9-14.8 0-14.6 11.8-26.4 26.4-26.4s26.4 11.8 26.4 26.4S78.9 90.3 64.3 90.3Z"/>
  <path fill="#fff" d="M78.7 69.6c-.8-.4-4.7-2.3-5.5-2.6-.7-.3-1.3-.4-1.8.4-.5.8-2.1 2.6-2.5 3.1-.5.5-.9.6-1.7.2-.8-.4-3.4-1.3-6.4-4-2.4-2.1-4-4.8-4.4-5.6-.5-.8 0-1.2.4-1.6.4-.4.8-.9 1.2-1.4.4-.5.5-.8.8-1.4.3-.5.1-1-.1-1.4-.2-.4-1.8-4.3-2.5-5.9-.7-1.6-1.3-1.3-1.8-1.4h-1.5c-.5 0-1.4.2-2.1 1-.7.8-2.8 2.7-2.8 6.7s2.9 7.7 3.3 8.3c.4.5 5.6 8.6 13.6 12 1.9.8 3.4 1.3 4.5 1.7 1.9.6 3.6.5 5 .3 1.5-.2 4.7-1.9 5.4-3.8.7-1.8.7-3.4.5-3.8-.2-.3-.7-.5-1.6-.9Z"/>
</svg>
